<svg width="167" height="142" viewBox="0 0 167 142" fill="none" xmlns="http://www.w3.org/2000/svg">
<path d="M90.8286 6.37973L122.428 23.8768C127.406 26.6335 130.834 28.5408 133.06 30.2428C135.274 31.9358 135.55 32.8678 135.55 33.5C135.55 34.1322 135.274 35.0642 133.06 36.7572C130.834 38.4592 127.406 40.3665 122.428 43.1232L90.8286 60.6203C89.1215 61.5655 88.0224 62.1705 87.129 62.5592C86.2943 62.9223 85.8499 62.9985 85.5 62.9985C85.1501 62.9985 84.7057 62.9223 83.871 62.5592C82.9776 62.1705 81.8785 61.5655 80.1714 60.6203L48.5723 43.1232C43.5938 40.3665 40.1657 38.4592 37.9399 36.7572C35.7258 35.0642 35.4504 34.1322 35.4504 33.5C35.4504 32.8678 35.7258 31.9358 37.9399 30.2428C40.1657 28.5408 43.5938 26.6335 48.5723 23.8768L80.1714 6.37973C81.8785 5.4345 82.9776 4.82949 83.871 4.44085C84.7057 4.07768 85.1501 4.00148 85.5 4.00148C85.8499 4.00148 86.2943 4.07768 87.129 4.44085C88.0224 4.82949 89.1215 5.4345 90.8286 6.37973Z" stroke="black" stroke-width="6" stroke-linecap="round" stroke-linejoin="round"/>
<path d="M134.928 48.4083L132.161 82.7709C132.013 84.6057 131.915 85.7831 131.758 86.6893C131.612 87.5357 131.445 87.9306 131.268 88.2122C131.091 88.4938 130.808 88.8154 130.109 89.3151C129.361 89.8502 128.343 90.4497 126.755 91.3799L97.0067 108.801C91.8328 111.831 88.2459 113.922 85.508 115.026C82.7645 116.133 81.7994 115.862 81.2647 115.526C80.7301 115.19 80.0666 114.439 79.8714 111.487C79.6766 108.541 80.002 104.402 80.4834 98.4256L83.2513 64.063C83.3991 62.2282 83.4968 61.0508 83.6537 60.1446C83.8003 59.2982 83.9668 58.9033 84.1436 58.6217C84.3205 58.3401 84.6039 58.0185 85.3025 57.5188C86.0506 56.9837 87.0686 56.3842 88.657 55.454L118.405 38.033C123.579 35.0031 127.166 32.9117 129.904 31.8074C132.647 30.7009 133.613 30.9721 134.147 31.3078C134.682 31.6435 135.345 32.395 135.541 35.3468C135.735 38.2925 135.41 42.4319 134.928 48.4083Z" fill="white" stroke="black" stroke-width="6" stroke-linejoin="round"/>
<path d="M32.6095 49.5481L32.322 83.6742C32.3042 85.7783 32.2964 87.1347 32.3932 88.1796C32.4838 89.1569 32.6491 89.6085 32.8383 89.9301C33.0274 90.2518 33.3416 90.6159 34.1515 91.1703C35.0174 91.763 36.2065 92.4158 38.0536 93.4234L68.0129 109.767C72.6798 112.313 75.8816 114.051 78.339 114.953C80.7617 115.843 81.6668 115.617 82.2095 115.298C82.7521 114.979 83.3899 114.298 83.7906 111.748C84.197 109.162 84.2357 105.519 84.2805 100.203L84.568 66.0771C84.5857 63.9731 84.5936 62.6166 84.4967 61.5717C84.4061 60.5945 84.2408 60.1429 84.0517 59.8212C83.8626 59.4995 83.5484 59.1355 82.7385 58.5811C81.8726 57.9883 80.6835 57.3356 78.8363 56.3279L48.877 39.9842C44.2101 37.4383 41.0084 35.7007 38.551 34.7983C36.1283 33.9086 35.2231 34.1348 34.6805 34.4538C34.1379 34.7728 33.5001 35.4537 33.0994 38.0033C32.693 40.5895 32.6543 44.2321 32.6095 49.5481Z" fill="black" stroke="black" stroke-width="6" stroke-linejoin="round"/>
</svg>
